# xmcd
#
# Track frame offsets: 
#        150
#        21912
#        39368
#        62100
#        79938
#        97331
#        118458
#        140502
#        159993
#        190765
#        213229
#        231901
#        245928
#        268107
#        291538
#
# Disc length: 4102 seconds
#
# Revision: 1
# Processed by: cddbd v1.5.2PL0 Copyright (c) Steve Scherf et al.
# Submitted via: ExactAudioCopy v0.95b4
#
DISCID=ec10040f
DTITLE=B.B. King and Friends - B.B. King and Friends 80
DYEAR=2005
DGENRE=Blues
TTITLE0=Early In The Morning (with Van Morrison)
TTITLE1=Tired Of Your Jive (with Billy Gibbons)
TTITLE2=The Thrill Is Gone (with Eric Clapton)
TTITLE3=Need Your Love So Bad (with Sheryl Crow)
TTITLE4=Ain't Nobody Home (with Darryl Hall and John Oates)
TTITLE5=Hummingbird (with John Mayer)
TTITLE6=All Over Again (with Mark Knopfler)
TTITLE7=Driving' Wheel (with Glenn Frey)
TTITLE8=There Must Be A Better World Somewhere (with Gloria Estefan)
TTITLE9=Never Make your Move Too Soon (with Roger Daltrey)
TTITLE10=Funny How Time Slips Away (with Bobby Bland)
TTITLE11=Rock This House (with Elton John)
TTITLE12=Dangerous Mood (with Joe Cocker)
TTITLE13=Let The Good Times Roll (withZucchero)
TTITLE14=Paying The Cost To Be The Boss (with The Rolling Stones)
EXTD=YEAR: 2005
EXTT0=
EXTT1=
EXTT2=
EXTT3=
EXTT4=
EXTT5=
EXTT6=
EXTT7=
EXTT8=
EXTT9=
EXTT10=
EXTT11=
EXTT12=
EXTT13=
EXTT14=
PLAYORDER=
